<?xml version="1.0" encoding="UTF-8"?>
<svg width="60px" height="60px" viewBox="0 0 60 60" version="1.1" xmlns="http://www.w3.org/2000/svg" xmlns:xlink="http://www.w3.org/1999/xlink">
    <!-- Generator: Sketch 43.2 (39069) - http://www.bohemiancoding.com/sketch -->
    <title>cart_black</title>
    <desc>Created with Sketch.</desc>
    <defs>
        <rect id="path-1" x="0" y="0" width="60" height="60"></rect>
    </defs>
    <g id="assets" stroke="none" stroke-width="1" fill="none" fill-rule="evenodd">
        <g id="cart_black">
            <g id="cart">
                <mask id="mask-2" fill="white">
                    <use xlink:href="#path-1"></use>
                </mask>
                <g id="Mask"></g>
                <g mask="url(#mask-2)" fill-rule="nonzero" fill="#000000">
                    <g transform="translate(22.000000, 20.000000)">
                        <path d="M6,2 L6,4 L10,4 L10,2 L6,2 Z M4,1.5 L4,1 C4,0.44771525 4.4472569,0 4.99703015,0 L11.0029698,0 C11.5536144,0 12,0.443864822 12,1 L12,1.5 L12,4 L16,4 L16,5 L16,20 L15,20 L0,20 L0,19 L0,5 L0,4 L4,4 L4,1.5 Z M10,6 L6,6 L6,8 L4,8 L4,6 L2,6 L2,18 L14,18 L14,6 L12,6 L12,8 L10,8 L10,6 Z"></path>
                    </g>
                </g>
            </g>
        </g>
    </g>
</svg>