<?xml version="1.0" encoding="UTF-8"?>
<svg width="60px" height="60px" viewBox="0 0 60 60" version="1.1" xmlns="http://www.w3.org/2000/svg" xmlns:xlink="http://www.w3.org/1999/xlink">
    <!-- Generator: Sketch 43.2 (39069) - http://www.bohemiancoding.com/sketch -->
    <title>cart</title>
    <desc>Created with Sketch.</desc>
    <defs>
        <rect id="path-1" x="0" y="0" width="60" height="60"></rect>
    </defs>
    <g id="assets" stroke="none" stroke-width="1" fill="none" fill-rule="evenodd">
        <g id="cart">
            <g>
                <mask id="mask-2" fill="white">
                    <use xlink:href="#path-1"></use>
                </mask>
                <g id="Mask"></g>
                <g mask="url(#mask-2)" fill-rule="nonzero" fill="#828282">
                    <g transform="translate(21.000000, 19.000000)">
                        <path d="M6.75,2.2 L6.75,4.4 L11.25,4.4 L11.25,2.2 L6.75,2.2 Z M4.5,1.65 L4.5,1.1 C4.5,0.492486775 5.00316401,0 5.62165892,0 L12.3783411,0 C12.9978162,0 13.5,0.488251305 13.5,1.1 L13.5,1.65 L13.5,4.4 L18,4.4 L18,5.5 L18,22 L16.875,22 L0,22 L0,20.9 L0,5.5 L0,4.4 L4.5,4.4 L4.5,1.65 Z M11.25,6.6 L6.75,6.6 L6.75,8.8 L4.5,8.8 L4.5,6.6 L2.25,6.6 L2.25,19.8 L15.75,19.8 L15.75,6.6 L13.5,6.6 L13.5,8.8 L11.25,8.8 L11.25,6.6 Z"></path>
                    </g>
                </g>
            </g>
        </g>
    </g>
</svg>