<?xml version="1.0" encoding="UTF-8"?>
<svg width="80px" height="80px" viewBox="0 0 80 80" version="1.1" xmlns="http://www.w3.org/2000/svg" xmlns:xlink="http://www.w3.org/1999/xlink">
    <!-- Generator: Sketch 43.2 (39069) - http://www.bohemiancoding.com/sketch -->
    <title>one plus logo</title>
    <desc>Created with Sketch.</desc>
    <defs></defs>
    <g id="assets" stroke="none" stroke-width="1" fill="none" fill-rule="evenodd">
        <g id="one-plus-logo" fill="#E90C30">
            <g id="logo" transform="translate(14.000000, 7.000000)">
                <path d="M49,55.5 L49,58 L0,58 L0,55.5 L0,8 L2.5,8 L32,8 L32,13 L5,13 L5,53 L44,53 L44,25 L49,25 L49,55.5 Z" id="frame"></path>
                <path d="M22,40 L22,25 L17,25 L17,20 L27,20 L27,22.5 L27,40 L32,40 L32,45 L17,45 L17,40 L22,40 Z" id="one"></path>
                <path d="M50,8 L50,0 L45,0 L45,8 L37,8 L37,13 L45,13 L45,21 L50,21 L50,13 L57,13 L57,8 L50,8 Z" id="plus"></path>
            </g>
        </g>
    </g>
</svg>