<?xml version="1.0" encoding="UTF-8"?>
<svg width="60px" height="60px" viewBox="0 0 60 60" version="1.1" xmlns="http://www.w3.org/2000/svg" xmlns:xlink="http://www.w3.org/1999/xlink">
    <!-- Generator: Sketch 43.2 (39069) - http://www.bohemiancoding.com/sketch -->
    <title>one_plus_logo</title>
    <desc>Created with Sketch.</desc>
    <defs>
        <rect id="path-1" x="0" y="0" width="60" height="60"></rect>
    </defs>
    <g id="assets" stroke="none" stroke-width="1" fill="none" fill-rule="evenodd">
        <g id="one_plus_logo">
            <g>
                <mask id="mask-2" fill="white">
                    <use xlink:href="#path-1"></use>
                </mask>
                <g id="Mask"></g>
                <g mask="url(#mask-2)" fill-rule="nonzero" fill="#E90C30">
                    <g transform="translate(16.000000, 14.000000)">
                        <polygon id="frame" points="24.0988304 27.612963 24.0988304 28.8567901 0 28.8567901 0 27.612963 0 3.98024691 1.22953216 3.98024691 15.7380117 3.98024691 15.7380117 6.46790123 2.45906433 6.46790123 2.45906433 26.3691358 21.6397661 26.3691358 21.6397661 12.4382716 24.0988304 12.4382716"></polygon>
                        <polygon id="one" points="10.819883 19.9012346 10.819883 12.4382716 8.36081871 12.4382716 8.36081871 9.95061728 13.2789474 9.95061728 13.2789474 11.1944444 13.2789474 19.9012346 15.7380117 19.9012346 15.7380117 22.3888889 8.36081871 22.3888889 8.36081871 19.9012346"></polygon>
                        <polygon id="plus" points="24.5906433 3.98024691 24.5906433 0 22.1315789 0 22.1315789 3.98024691 18.197076 3.98024691 18.197076 6.46790123 22.1315789 6.46790123 22.1315789 10.4481481 24.5906433 10.4481481 24.5906433 6.46790123 28.0333333 6.46790123 28.0333333 3.98024691"></polygon>
                    </g>
                </g>
            </g>
        </g>
    </g>
</svg>